<svg id="Layer_1" data-name="Layer 1" xmlns="http://www.w3.org/2000/svg" viewBox="0 0 184.25 52.51"><defs><style>.cls-1{fill-rule:evenodd;}</style></defs><path d="M192.77,25.91h.45v-.42h-.73v1.26h.28Zm-1.33,0h.44v-.42h-.74v1.26h.3Zm-23.67-11.6V47.92h17.6V37.81h3V47.92h.41V36.85h5.47V47.92h.37V37.81h3V47.92h4V14.31ZM191.51,20l3,1.82h-6Zm-3,2.16h6l.32,2.21h-6.65Zm8.5,15.3h-2.36v-1h-6.25v1H186V35.34h.42v-7h.67V24.74h8.8v3.62h.67v7h.4Zm-4-2.12h.49V30.71h1.11v-.83H193Zm-5.08-6.23h7.23l.35-.46H187.6Zm2.8,6.23h.49V30.71h1.11v-.83h-1.62Zm-.61-9.43h.45v-.42h-.74v1.26h.29Zm-1.67,9.43h.5V30.71H190v-.83H188.4Zm3.11,3a1.53,1.53,0,1,0,1.53,1.53A1.53,1.53,0,0,0,191.53,38.3Zm0,2.72a1.19,1.19,0,1,1,1.19-1.19A1.19,1.19,0,0,1,191.53,41Z" transform="translate(-17.98 -14.31)"/><path d="M28.63,61.82V54.28H26.07V62a2.64,2.64,0,0,1-.62,1.9,2.7,2.7,0,0,1-2.15.78,2.66,2.66,0,0,1-2.07-.78,2.89,2.89,0,0,1-.7-2V54.28H18v7.8a4.7,4.7,0,0,0,1.22,3.47,5.61,5.61,0,0,0,4.05,1.27,5.55,5.55,0,0,0,4.13-1.42,4.91,4.91,0,0,0,1.25-3.58Z" transform="translate(-17.98 -14.31)"/><path class="cls-1" d="M43.44,66.64V54.28H40.88v6.31c0,.52,0,1.32,0,1.91h0c-.33-.51-.67-1-1.16-1.62l-5.18-6.6h-2.6V66.64h2.57V59.87c0-.56,0-1.31,0-1.72h0c.36.54.71,1,1.18,1.62l5.36,6.87Z" transform="translate(-17.98 -14.31)"/><polygon points="31.5 52.33 31.5 39.98 28.93 39.98 28.93 52.33 31.5 52.33 31.5 52.33"/><path d="M63.24,54.28H60.61l-2.8,6.65A22.48,22.48,0,0,0,57,63.15h0c-.25-.7-.53-1.49-.85-2.29l-2.52-6.58H50.77l5.07,12.46h1.92l5.48-12.46Z" transform="translate(-17.98 -14.31)"/><polygon points="53.88 52.33 53.88 50.23 49.29 50.23 49.29 47.07 53.23 47.07 53.23 44.95 49.29 44.95 49.29 42.08 53.22 42.08 53.89 39.98 46.72 39.98 46.72 52.33 53.88 52.33 53.88 52.33"/><path class="cls-1" d="M84.2,66.64c-1.86-3.15-3-5.24-3.68-5.59v0a3.51,3.51,0,0,0,2.24-3.19c0-1.91-1.19-3.55-4.49-3.55H74.66V66.64h2.58V61.87h1c.44.17,1.19,1.56,3.07,4.77Zm-4-8.53A1.85,1.85,0,0,1,78.32,60H77.24V56.43h1.08a1.69,1.69,0,0,1,1.9,1.68Z" transform="translate(-17.98 -14.31)"/><path d="M93.2,63.16c0-3.88-5.32-3.69-5.32-5.84,0-.71.72-1.12,1.63-1.12a6.1,6.1,0,0,1,2.95.9l0-2.22a6.5,6.5,0,0,0-3.11-.74c-2.73,0-4.21,1.64-4.21,3.53A3.25,3.25,0,0,0,86,59.86c1.51,1.71,4.51,2,4.51,3.63,0,.93-1,1.27-1.91,1.27a5.14,5.14,0,0,1-2.84-1l-1,1.86a7,7,0,0,0,3.94,1.16c2.54,0,4.53-1.4,4.53-3.66Z" transform="translate(-17.98 -14.31)"/><polygon points="79.87 52.33 79.87 39.98 77.3 39.98 77.3 52.33 79.87 52.33 79.87 52.33"/><polygon points="91.79 39.98 81.68 39.98 81.68 42.08 85.3 42.08 85.3 52.33 87.89 52.33 87.89 42.08 91.21 42.08 91.79 39.98 91.79 39.98"/><path d="M121.06,54.28h-2.69l-1.89,3.49c-.28.52-.63,1.18-.89,1.74h0c-.26-.56-.62-1.25-.91-1.78l-1.89-3.45h-2.83l4.28,7.47v4.89h2.57V61.78l4.28-7.5Z" transform="translate(-17.98 -14.31)"/><path class="cls-1" d="M138.85,60.44a5.94,5.94,0,0,0-6.39-6.3A6.26,6.26,0,0,0,127.87,56a6.51,6.51,0,0,0-1.79,4.62,6.18,6.18,0,0,0,2,4.72,7,7,0,0,0,9.06-.34,6.33,6.33,0,0,0,1.73-4.54Zm-2.72.06c0,2.71-1.56,4.26-3.67,4.26s-3.69-1.55-3.69-4.26,1.56-4.26,3.69-4.26,3.67,1.59,3.67,4.26Z" transform="translate(-17.98 -14.31)"/><polygon points="130.44 39.98 123.25 39.98 123.25 52.33 125.83 52.33 125.83 47.11 129.74 47.11 129.73 45.01 125.83 45.01 125.83 42.08 129.78 42.08 130.44 39.98 130.44 39.98"/><polygon points="143.58 52.32 143.58 50.2 139.24 50.2 139.24 40 136.7 40 136.7 52.32 143.58 52.32 143.58 52.32"/><polygon points="152.41 52.32 152.41 50.22 147.83 50.22 147.83 47.07 151.76 47.07 151.76 44.96 147.83 44.96 147.83 42.09 151.74 42.09 152.43 40 145.27 40 145.27 52.32 152.41 52.32 152.41 52.32"/><polygon points="161.76 52.32 161.76 50.22 157.2 50.22 157.2 47.07 161.13 47.07 161.13 44.96 157.2 44.96 157.2 42.09 161.11 42.09 161.77 40 154.63 40 154.63 52.32 161.76 52.32 161.76 52.32"/><path class="cls-1" d="M192.94,60.37c0-3.69-2.47-6.06-6.87-6.06H182V66.63h3.87c4.28,0,7.1-2.48,7.1-6.26Zm-2.75.06c0,2.16-1.2,4.08-4.25,4.08h-1.4V56.44h1.36c2.83,0,4.29,1.57,4.29,4Z" transform="translate(-17.98 -14.31)"/><path d="M202.23,63.16c0-3.87-5.3-3.69-5.3-5.82,0-.71.71-1.12,1.63-1.12a6,6,0,0,1,2.94.9l0-2.22a6.32,6.32,0,0,0-3.11-.75c-2.71,0-4.19,1.65-4.19,3.52a3.23,3.23,0,0,0,.79,2.2c1.5,1.7,4.49,2,4.49,3.61,0,.94-1,1.27-1.91,1.27a5,5,0,0,1-2.82-1l-1,1.86a7,7,0,0,0,3.94,1.16c2.52,0,4.51-1.4,4.51-3.65Z" transform="translate(-17.98 -14.31)"/></svg>